<?xml version="1.0" encoding="UTF-8" standalone="no"?>
<!DOCTYPE svg PUBLIC "-//W3C//DTD SVG 1.1//EN"
 "http://www.w3.org/Graphics/SVG/1.1/DTD/svg11.dtd">
<!-- Generated by graphviz version 2.43.0 (0)
 -->
<!-- Title: %3 Pages: 1 -->
<svg width="1093pt" height="649pt"
 viewBox="0.00 0.00 1092.64 649.00" xmlns="http://www.w3.org/2000/svg" xmlns:xlink="http://www.w3.org/1999/xlink">
<g id="graph0" class="graph" transform="scale(1 1) rotate(0) translate(4 645)">
<title>%3</title>
<polygon fill="white" stroke="transparent" points="-4,4 -4,-645 1088.64,-645 1088.64,4 -4,4"/>
<text text-anchor="middle" x="542.32" y="-128.8" font-family="Times,serif" font-size="14.00">Model:</text>
<text text-anchor="middle" x="542.32" y="-113.8" font-family="Times,serif" font-size="14.00">(Unknown)</text>
<text text-anchor="middle" x="542.32" y="-82.8" font-family="Times,serif" font-size="14.00">Namespaces:</text>
<text text-anchor="middle" x="542.32" y="-67.8" font-family="Times,serif" font-size="14.00">dbo: http://dbpedia.org/ontology/</text>
<text text-anchor="middle" x="542.32" y="-52.8" font-family="Times,serif" font-size="14.00">dbr: http://dbpedia.org/resource/</text>
<text text-anchor="middle" x="542.32" y="-37.8" font-family="Times,serif" font-size="14.00">ex: http://example.org/football/</text>
<text text-anchor="middle" x="542.32" y="-22.8" font-family="Times,serif" font-size="14.00">rdf: http://www.w3.org/1999/02/22&#45;rdf&#45;syntax&#45;ns#</text>
<text text-anchor="middle" x="542.32" y="-7.8" font-family="Times,serif" font-size="14.00">xsd: http://www.w3.org/2001/XMLSchema#</text>
<!-- Rex:Goal_Adam_Ounas_39 -->
<g id="node1" class="node">
<title>Rex:Goal_Adam_Ounas_39</title>
<ellipse fill="none" stroke="blue" cx="130.64" cy="-427.5" rx="126.18" ry="18"/>
<text text-anchor="middle" x="130.64" y="-423.8" font-family="Times,serif" font-size="14.00">ex:Goal_Adam_Ounas_39</text>
</g>
<!-- Rex:Goal -->
<g id="node2" class="node">
<title>Rex:Goal</title>
<ellipse fill="none" stroke="blue" cx="593.96" cy="-313.5" rx="45.49" ry="18"/>
<text text-anchor="middle" x="593.96" y="-309.8" font-family="Times,serif" font-size="14.00">ex:Goal</text>
</g>
<!-- Rex:Goal_Adam_Ounas_39&#45;&gt;Rex:Goal -->
<g id="edge1" class="edge">
<title>Rex:Goal_Adam_Ounas_39&#45;&gt;Rex:Goal</title>
<path fill="none" stroke="black" d="M147.58,-409.38C172.51,-382.56 223.67,-333.44 279.28,-314.5 368.03,-284.27 479.28,-294.25 542.63,-304.03"/>
<polygon fill="black" stroke="black" points="542.32,-307.52 552.75,-305.65 543.43,-300.61 542.32,-307.52"/>
<text text-anchor="middle" x="330.78" y="-318.3" font-family="Times,serif" font-size="14.00">rdf:type</text>
</g>
<!-- L39|Datatype: xsd:integer -->
<g id="node3" class="node">
<title>L39|Datatype: xsd:integer</title>
<polygon fill="none" stroke="black" points="507.96,-442.5 507.96,-488.5 679.96,-488.5 679.96,-442.5 507.96,-442.5"/>
<text text-anchor="middle" x="593.96" y="-473.3" font-family="Times,serif" font-size="14.00">39</text>
<polyline fill="none" stroke="black" points="507.96,-465.5 679.96,-465.5 "/>
<text text-anchor="middle" x="593.96" y="-450.3" font-family="Times,serif" font-size="14.00">Datatype: xsd:integer</text>
</g>
<!-- Rex:Goal_Adam_Ounas_39&#45;&gt;L39|Datatype: xsd:integer -->
<g id="edge2" class="edge">
<title>Rex:Goal_Adam_Ounas_39&#45;&gt;L39|Datatype: xsd:integer</title>
<path fill="none" stroke="black" d="M229.66,-438.65C246.21,-440.38 263.23,-442.07 279.28,-443.5 352.42,-450.03 435.3,-455.77 497.49,-459.75"/>
<polygon fill="black" stroke="black" points="497.48,-463.25 507.68,-460.4 497.93,-456.27 497.48,-463.25"/>
<text text-anchor="middle" x="330.78" y="-454.3" font-family="Times,serif" font-size="14.00">ex:goalMinute</text>
</g>
<!-- Rex:Adam_Ounas -->
<g id="node4" class="node">
<title>Rex:Adam_Ounas</title>
<ellipse fill="none" stroke="blue" cx="593.96" cy="-525.5" rx="84.49" ry="18"/>
<text text-anchor="middle" x="593.96" y="-521.8" font-family="Times,serif" font-size="14.00">ex:Adam_Ounas</text>
</g>
<!-- Rex:Goal_Adam_Ounas_39&#45;&gt;Rex:Adam_Ounas -->
<g id="edge3" class="edge">
<title>Rex:Goal_Adam_Ounas_39&#45;&gt;Rex:Adam_Ounas</title>
<path fill="none" stroke="black" d="M186.53,-443.71C214.26,-451.74 248.47,-461.43 279.28,-469.5 332.77,-483.51 345.94,-488.21 400.28,-498.5 435.77,-505.22 475.23,-511.04 509.15,-515.54"/>
<polygon fill="black" stroke="black" points="509.12,-519.06 519.49,-516.89 510.03,-512.12 509.12,-519.06"/>
<text text-anchor="middle" x="330.78" y="-497.3" font-family="Times,serif" font-size="14.00">ex:scoredBy</text>
</g>
<!-- Rex:Match_2019&#45;07&#45;01_Tanzania_Algeria -->
<g id="node5" class="node">
<title>Rex:Match_2019&#45;07&#45;01_Tanzania_Algeria</title>
<ellipse fill="none" stroke="blue" cx="593.96" cy="-389.5" rx="193.87" ry="18"/>
<text text-anchor="middle" x="593.96" y="-385.8" font-family="Times,serif" font-size="14.00">ex:Match_2019&#45;07&#45;01_Tanzania_Algeria</text>
</g>
<!-- Rex:Goal_Adam_Ounas_39&#45;&gt;Rex:Match_2019&#45;07&#45;01_Tanzania_Algeria -->
<g id="edge4" class="edge">
<title>Rex:Goal_Adam_Ounas_39&#45;&gt;Rex:Match_2019&#45;07&#45;01_Tanzania_Algeria</title>
<path fill="none" stroke="black" d="M184.01,-411.08C211.97,-403.16 247.16,-394.52 279.28,-390.5 319.71,-385.44 363.31,-383.26 404.77,-382.7"/>
<polygon fill="black" stroke="black" points="405.02,-386.2 414.98,-382.59 404.94,-379.2 405.02,-386.2"/>
<text text-anchor="middle" x="330.78" y="-394.3" font-family="Times,serif" font-size="14.00">ex:scoredIn</text>
</g>
<!-- Rex:Footballer -->
<g id="node7" class="node">
<title>Rex:Footballer</title>
<ellipse fill="none" stroke="blue" cx="1008.64" cy="-272.5" rx="71.49" ry="18"/>
<text text-anchor="middle" x="1008.64" y="-268.8" font-family="Times,serif" font-size="14.00">ex:Footballer</text>
</g>
<!-- Rex:Adam_Ounas&#45;&gt;Rex:Footballer -->
<g id="edge10" class="edge">
<title>Rex:Adam_Ounas&#45;&gt;Rex:Footballer</title>
<path fill="none" stroke="black" d="M672.31,-532.29C747.45,-534.1 858.22,-523.09 914.64,-451.5 956.48,-398.42 890.88,-353.64 932.64,-300.5 936.13,-296.06 940.4,-292.32 945.12,-289.18"/>
<polygon fill="black" stroke="black" points="947.04,-292.11 954.01,-284.14 943.59,-286.02 947.04,-292.11"/>
<text text-anchor="middle" x="860.14" y="-521.3" font-family="Times,serif" font-size="14.00">rdf:type</text>
</g>
<!-- Rex:Match -->
<g id="node12" class="node">
<title>Rex:Match</title>
<ellipse fill="none" stroke="blue" cx="1008.64" cy="-446.5" rx="53.89" ry="18"/>
<text text-anchor="middle" x="1008.64" y="-442.8" font-family="Times,serif" font-size="14.00">ex:Match</text>
</g>
<!-- Rex:Match_2019&#45;07&#45;01_Tanzania_Algeria&#45;&gt;Rex:Match -->
<g id="edge15" class="edge">
<title>Rex:Match_2019&#45;07&#45;01_Tanzania_Algeria&#45;&gt;Rex:Match</title>
<path fill="none" stroke="black" d="M702.85,-404.4C781.4,-415.25 884.81,-429.53 948.72,-438.36"/>
<polygon fill="black" stroke="black" points="948.24,-441.83 958.63,-439.73 949.2,-434.89 948.24,-441.83"/>
<text text-anchor="middle" x="860.14" y="-436.3" font-family="Times,serif" font-size="14.00">rdf:type</text>
</g>
<!-- Rdbr:Algeria -->
<g id="node13" class="node">
<title>Rdbr:Algeria</title>
<ellipse fill="none" stroke="blue" cx="1008.64" cy="-392.5" rx="63.09" ry="18"/>
<text text-anchor="middle" x="1008.64" y="-388.8" font-family="Times,serif" font-size="14.00">dbr:Algeria</text>
</g>
<!-- Rex:Match_2019&#45;07&#45;01_Tanzania_Algeria&#45;&gt;Rdbr:Algeria -->
<g id="edge16" class="edge">
<title>Rex:Match_2019&#45;07&#45;01_Tanzania_Algeria&#45;&gt;Rdbr:Algeria</title>
<path fill="none" stroke="black" d="M787.1,-390.9C839.84,-391.28 893.82,-391.67 935.17,-391.97"/>
<polygon fill="black" stroke="black" points="935.38,-395.47 945.41,-392.05 935.43,-388.47 935.38,-395.47"/>
<text text-anchor="middle" x="860.14" y="-395.3" font-family="Times,serif" font-size="14.00">dbo:awayTeam</text>
</g>
<!-- L2019&#45;07&#45;01|Datatype: xsd:date -->
<g id="node14" class="node">
<title>L2019&#45;07&#45;01|Datatype: xsd:date</title>
<polygon fill="none" stroke="black" points="932.64,-309.5 932.64,-355.5 1084.64,-355.5 1084.64,-309.5 932.64,-309.5"/>
<text text-anchor="middle" x="1008.64" y="-340.3" font-family="Times,serif" font-size="14.00">2019&#45;07&#45;01</text>
<polyline fill="none" stroke="black" points="932.64,-332.5 1084.64,-332.5 "/>
<text text-anchor="middle" x="1008.64" y="-317.3" font-family="Times,serif" font-size="14.00">Datatype: xsd:date</text>
</g>
<!-- Rex:Match_2019&#45;07&#45;01_Tanzania_Algeria&#45;&gt;L2019&#45;07&#45;01|Datatype: xsd:date -->
<g id="edge17" class="edge">
<title>Rex:Match_2019&#45;07&#45;01_Tanzania_Algeria&#45;&gt;L2019&#45;07&#45;01|Datatype: xsd:date</title>
<path fill="none" stroke="black" d="M702.85,-374.6C771.42,-365.13 858.94,-353.04 922.59,-344.25"/>
<polygon fill="black" stroke="black" points="923.17,-347.7 932.6,-342.87 922.21,-340.77 923.17,-347.7"/>
<text text-anchor="middle" x="860.14" y="-362.3" font-family="Times,serif" font-size="14.00">dbo:date</text>
</g>
<!-- Rdbr:Tanzania -->
<g id="node15" class="node">
<title>Rdbr:Tanzania</title>
<ellipse fill="none" stroke="blue" cx="1008.64" cy="-218.5" rx="70.69" ry="18"/>
<text text-anchor="middle" x="1008.64" y="-214.8" font-family="Times,serif" font-size="14.00">dbr:Tanzania</text>
</g>
<!-- Rex:Match_2019&#45;07&#45;01_Tanzania_Algeria&#45;&gt;Rdbr:Tanzania -->
<g id="edge18" class="edge">
<title>Rex:Match_2019&#45;07&#45;01_Tanzania_Algeria&#45;&gt;Rdbr:Tanzania</title>
<path fill="none" stroke="black" d="M728.54,-376.51C750.72,-368.88 771.67,-357.46 787.64,-340.5 816.81,-309.54 774.8,-275.79 805.64,-246.5 839.86,-214 893.22,-207.75 936.51,-209.23"/>
<polygon fill="black" stroke="black" points="936.55,-212.74 946.71,-209.73 936.89,-205.75 936.55,-212.74"/>
<text text-anchor="middle" x="860.14" y="-250.3" font-family="Times,serif" font-size="14.00">dbo:homeTeam</text>
</g>
<!-- Rex:Islam_Slimani -->
<g id="node6" class="node">
<title>Rex:Islam_Slimani</title>
<ellipse fill="none" stroke="blue" cx="593.96" cy="-259.5" rx="89.08" ry="18"/>
<text text-anchor="middle" x="593.96" y="-255.8" font-family="Times,serif" font-size="14.00">ex:Islam_Slimani</text>
</g>
<!-- Rex:Islam_Slimani&#45;&gt;Rex:Footballer -->
<g id="edge5" class="edge">
<title>Rex:Islam_Slimani&#45;&gt;Rex:Footballer</title>
<path fill="none" stroke="black" d="M681.97,-262.24C754.44,-264.52 856.82,-267.75 927.35,-269.97"/>
<polygon fill="black" stroke="black" points="927.41,-273.47 937.51,-270.29 927.63,-266.48 927.41,-273.47"/>
<text text-anchor="middle" x="860.14" y="-272.3" font-family="Times,serif" font-size="14.00">rdf:type</text>
</g>
<!-- Rex:Goal_Islam_Slimani_35 -->
<g id="node8" class="node">
<title>Rex:Goal_Islam_Slimani_35</title>
<ellipse fill="none" stroke="blue" cx="130.64" cy="-256.5" rx="130.78" ry="18"/>
<text text-anchor="middle" x="130.64" y="-252.8" font-family="Times,serif" font-size="14.00">ex:Goal_Islam_Slimani_35</text>
</g>
<!-- Rex:Goal_Islam_Slimani_35&#45;&gt;Rex:Goal -->
<g id="edge6" class="edge">
<title>Rex:Goal_Islam_Slimani_35&#45;&gt;Rex:Goal</title>
<path fill="none" stroke="black" d="M261.42,-256.33C300.89,-259.07 343.94,-264.92 382.28,-276.5 391.04,-279.15 391.6,-283.59 400.28,-286.5 445.26,-301.57 498.88,-308.23 538.12,-311.17"/>
<polygon fill="black" stroke="black" points="538.07,-314.68 548.28,-311.88 538.55,-307.69 538.07,-314.68"/>
<text text-anchor="middle" x="330.78" y="-280.3" font-family="Times,serif" font-size="14.00">rdf:type</text>
</g>
<!-- Rex:Goal_Islam_Slimani_35&#45;&gt;Rex:Match_2019&#45;07&#45;01_Tanzania_Algeria -->
<g id="edge9" class="edge">
<title>Rex:Goal_Islam_Slimani_35&#45;&gt;Rex:Match_2019&#45;07&#45;01_Tanzania_Algeria</title>
<path fill="none" stroke="black" d="M161.15,-274.08C190.25,-290.68 236.45,-315.11 279.28,-329.5 339.77,-349.82 409.27,-364 467.45,-373.45"/>
<polygon fill="black" stroke="black" points="467.01,-376.92 477.43,-375.04 468.11,-370.01 467.01,-376.92"/>
<text text-anchor="middle" x="330.78" y="-360.3" font-family="Times,serif" font-size="14.00">ex:scoredIn</text>
</g>
<!-- Rex:Goal_Islam_Slimani_35&#45;&gt;Rex:Islam_Slimani -->
<g id="edge8" class="edge">
<title>Rex:Goal_Islam_Slimani_35&#45;&gt;Rex:Islam_Slimani</title>
<path fill="none" stroke="black" d="M222.44,-243.67C241.2,-241.52 260.85,-239.62 279.28,-238.5 357.46,-233.75 446.57,-240.93 509.78,-248.15"/>
<polygon fill="black" stroke="black" points="509.75,-251.67 520.09,-249.35 510.56,-244.72 509.75,-251.67"/>
<text text-anchor="middle" x="330.78" y="-242.3" font-family="Times,serif" font-size="14.00">ex:scoredBy</text>
</g>
<!-- L35|Datatype: xsd:integer -->
<g id="node9" class="node">
<title>L35|Datatype: xsd:integer</title>
<polygon fill="none" stroke="black" points="507.96,-176.5 507.96,-222.5 679.96,-222.5 679.96,-176.5 507.96,-176.5"/>
<text text-anchor="middle" x="593.96" y="-207.3" font-family="Times,serif" font-size="14.00">35</text>
<polyline fill="none" stroke="black" points="507.96,-199.5 679.96,-199.5 "/>
<text text-anchor="middle" x="593.96" y="-184.3" font-family="Times,serif" font-size="14.00">Datatype: xsd:integer</text>
</g>
<!-- Rex:Goal_Islam_Slimani_35&#45;&gt;L35|Datatype: xsd:integer -->
<g id="edge7" class="edge">
<title>Rex:Goal_Islam_Slimani_35&#45;&gt;L35|Datatype: xsd:integer</title>
<path fill="none" stroke="black" d="M183.7,-240.01C211.73,-231.83 247.07,-222.62 279.28,-217.5 351.99,-205.93 435.24,-201.56 497.69,-200.01"/>
<polygon fill="black" stroke="black" points="498.01,-203.5 507.92,-199.77 497.85,-196.5 498.01,-203.5"/>
<text text-anchor="middle" x="330.78" y="-221.3" font-family="Times,serif" font-size="14.00">ex:goalMinute</text>
</g>
<!-- Rex:Goal_Adam_Ounas_45 -->
<g id="node10" class="node">
<title>Rex:Goal_Adam_Ounas_45</title>
<ellipse fill="none" stroke="blue" cx="130.64" cy="-560.5" rx="126.18" ry="18"/>
<text text-anchor="middle" x="130.64" y="-556.8" font-family="Times,serif" font-size="14.00">ex:Goal_Adam_Ounas_45</text>
</g>
<!-- Rex:Goal_Adam_Ounas_45&#45;&gt;Rex:Goal -->
<g id="edge11" class="edge">
<title>Rex:Goal_Adam_Ounas_45&#45;&gt;Rex:Goal</title>
<path fill="none" stroke="black" d="M158.26,-542.89C186.2,-523.52 230.28,-490.35 261.28,-454.5 271.45,-442.74 266.5,-433.36 279.28,-424.5 317.53,-397.97 346.03,-434.71 382.28,-405.5 398.41,-392.5 384.59,-376.03 400.28,-362.5 438.55,-329.49 496.08,-318.21 538.31,-314.6"/>
<polygon fill="black" stroke="black" points="538.71,-318.08 548.43,-313.86 538.2,-311.1 538.71,-318.08"/>
<text text-anchor="middle" x="330.78" y="-428.3" font-family="Times,serif" font-size="14.00">rdf:type</text>
</g>
<!-- Rex:Goal_Adam_Ounas_45&#45;&gt;Rex:Adam_Ounas -->
<g id="edge13" class="edge">
<title>Rex:Goal_Adam_Ounas_45&#45;&gt;Rex:Adam_Ounas</title>
<path fill="none" stroke="black" d="M256.1,-562.41C296.41,-562.13 341.29,-560.84 382.28,-557.5 428.34,-553.74 479.61,-546.04 520.04,-539.12"/>
<polygon fill="black" stroke="black" points="520.82,-542.54 530.08,-537.39 519.63,-535.64 520.82,-542.54"/>
<text text-anchor="middle" x="330.78" y="-565.3" font-family="Times,serif" font-size="14.00">ex:scoredBy</text>
</g>
<!-- Rex:Goal_Adam_Ounas_45&#45;&gt;Rex:Match_2019&#45;07&#45;01_Tanzania_Algeria -->
<g id="edge14" class="edge">
<title>Rex:Goal_Adam_Ounas_45&#45;&gt;Rex:Match_2019&#45;07&#45;01_Tanzania_Algeria</title>
<path fill="none" stroke="black" d="M213.99,-546.94C284.64,-534.96 376.07,-518.49 382.28,-512.5 408.18,-487.48 374.82,-458.97 400.28,-433.5 412.34,-421.43 426.99,-412.39 442.77,-405.65"/>
<polygon fill="black" stroke="black" points="444.15,-408.87 452.18,-401.95 441.59,-402.36 444.15,-408.87"/>
<text text-anchor="middle" x="330.78" y="-538.3" font-family="Times,serif" font-size="14.00">ex:scoredIn</text>
</g>
<!-- L45|Datatype: xsd:integer -->
<g id="node11" class="node">
<title>L45|Datatype: xsd:integer</title>
<polygon fill="none" stroke="black" points="507.96,-594.5 507.96,-640.5 679.96,-640.5 679.96,-594.5 507.96,-594.5"/>
<text text-anchor="middle" x="593.96" y="-625.3" font-family="Times,serif" font-size="14.00">45</text>
<polyline fill="none" stroke="black" points="507.96,-617.5 679.96,-617.5 "/>
<text text-anchor="middle" x="593.96" y="-602.3" font-family="Times,serif" font-size="14.00">Datatype: xsd:integer</text>
</g>
<!-- Rex:Goal_Adam_Ounas_45&#45;&gt;L45|Datatype: xsd:integer -->
<g id="edge12" class="edge">
<title>Rex:Goal_Adam_Ounas_45&#45;&gt;L45|Datatype: xsd:integer</title>
<path fill="none" stroke="black" d="M221.78,-572.96C240.77,-575.52 260.67,-578.14 279.28,-580.5 352.45,-589.77 435.33,-599.51 497.52,-606.67"/>
<polygon fill="black" stroke="black" points="497.37,-610.18 507.7,-607.85 498.17,-603.23 497.37,-610.18"/>
<text text-anchor="middle" x="330.78" y="-595.3" font-family="Times,serif" font-size="14.00">ex:goalMinute</text>
</g>
</g>
</svg>
